<svg width="200" height="200" viewBox="0 0 200 200" fill="none" xmlns="http://www.w3.org/2000/svg">
<g clip-path="url(#clip0)">
<rect width="200" height="200" fill="white"/>
<path fill-rule="evenodd" clip-rule="evenodd" d="M170.851 123.226C168.254 120.646 164.057 120.652 161.467 123.243C158.87 125.839 158.87 130.048 161.467 132.645L169.757 140.935C169.752 140.93 169.746 140.924 169.74 140.918L60.7717 31.9499C58.1754 29.3536 58.1754 25.1443 60.7717 22.548C63.368 19.9517 67.5774 19.9517 70.1736 22.548L170.851 123.226Z" fill="#5908A1"/>
<rect x="106.371" y="152.389" width="13.2964" height="13.2964" rx="6.64818" transform="rotate(45 106.371 152.389)" fill="#5908A1"/>
<rect x="15.2661" y="80.0878" width="133.894" height="13.2964" rx="6.64818" transform="rotate(45 15.2661 80.0878)" fill="#5908A1"/>
<rect x="62.5579" y="146.184" width="13.2964" height="13.2964" rx="6.64818" transform="rotate(45 62.5579 146.184)" fill="#7F56D8"/>
<rect x="57.481" y="47.8392" width="12.6315" height="12.6315" rx="6.31577" transform="rotate(45 57.481 47.8392)" fill="#5908A1"/>
<rect x="31.6255" y="2.80387" width="213.008" height="13.0388" rx="6.5194" transform="rotate(45 31.6255 2.80387)" fill="#7F56D8"/>
<rect x="38.865" y="47.2751" width="173.65" height="13.2964" rx="6.64818" transform="rotate(45 38.865 47.2751)" fill="#7F56D8"/>
<rect x="23.634" y="50.8478" width="173.65" height="13.2964" rx="6.64818" transform="rotate(45 23.634 50.8478)" fill="#5908A1"/>
<rect x="29.6511" y="75.6689" width="106.238" height="13.2964" rx="6.64818" transform="rotate(45 29.6511 75.6689)" fill="white"/>
<rect x="32.8479" y="116.473" width="36.299" height="13.2964" rx="6.64818" transform="rotate(45 32.8479 116.473)" fill="#5908A1"/>
<path fill-rule="evenodd" clip-rule="evenodd" d="M70.1616 22.5361C70.1655 22.54 70.1695 22.544 70.1735 22.548L179.142 131.516C181.738 134.113 185.948 134.113 188.544 131.516C191.14 128.92 191.14 124.711 188.544 122.115L117.571 51.142C120.155 53.7393 120.151 57.9396 117.559 60.5318C114.963 63.1281 110.754 63.1281 108.157 60.5318L70.1616 22.5361Z" fill="#5908A1"/>
<path fill-rule="evenodd" clip-rule="evenodd" d="M41.5798 49.9896C41.5837 49.9936 41.5877 49.9976 41.5917 50.0016L182.809 191.219C185.405 193.815 189.614 193.815 192.211 191.219C194.807 188.622 194.807 184.413 192.211 181.817L76.0148 65.6208C78.5991 68.218 78.5951 72.4184 76.0028 75.0107C73.4065 77.607 69.1971 77.607 66.6009 75.0107L41.5798 49.9896Z" fill="#5908A1"/>
<g filter="url(#filter0_bd)">
<rect x="19" y="77" width="162" height="46" rx="10" fill="white" fill-opacity="0.63" shape-rendering="crispEdges"/>
</g>
<path d="M37.2031 106.781H46.75V111H31.7188V88.25H37.2031V106.781ZM48.1562 102.391C48.1562 100.703 48.4844 99.2031 49.1406 97.8906C49.7969 96.5677 50.7396 95.5521 51.9688 94.8438C53.1979 94.1354 54.6406 93.7812 56.2969 93.7812C58.8281 93.7812 60.8229 94.5677 62.2812 96.1406C63.7396 97.7031 64.4688 99.8333 64.4688 102.531V102.719C64.4688 105.354 63.7344 107.448 62.2656 109C60.8073 110.542 58.8281 111.312 56.3281 111.312C53.9219 111.312 51.9896 110.594 50.5312 109.156C49.0729 107.708 48.2865 105.75 48.1719 103.281L48.1562 102.391ZM53.4219 102.719C53.4219 104.281 53.6667 105.427 54.1562 106.156C54.6458 106.885 55.3698 107.25 56.3281 107.25C58.2031 107.25 59.1615 105.807 59.2031 102.922V102.391C59.2031 99.3594 58.2344 97.8438 56.2969 97.8438C54.5365 97.8438 53.5833 99.151 53.4375 101.766L53.4219 102.719ZM66.1719 102.422C66.1719 100.714 66.4531 99.2031 67.0156 97.8906C67.5781 96.5781 68.3854 95.5677 69.4375 94.8594C70.4896 94.1406 71.7135 93.7812 73.1094 93.7812C74.8698 93.7812 76.2448 94.375 77.2344 95.5625L77.4219 94.0938H82.2031V110.359C82.2031 111.849 81.8542 113.141 81.1562 114.234C80.4688 115.339 79.4688 116.182 78.1562 116.766C76.8438 117.359 75.3229 117.656 73.5938 117.656C72.3542 117.656 71.151 117.422 69.9844 116.953C68.8281 116.484 67.9427 115.875 67.3281 115.125L69.5312 112.031C70.5104 113.188 71.8021 113.766 73.4062 113.766C75.7396 113.766 76.9062 112.568 76.9062 110.172V109.641C75.8958 110.755 74.6198 111.312 73.0781 111.312C71.0156 111.312 69.349 110.526 68.0781 108.953C66.8073 107.37 66.1719 105.255 66.1719 102.609V102.422ZM71.4531 102.75C71.4531 104.135 71.7135 105.234 72.2344 106.047C72.7552 106.849 73.4844 107.25 74.4219 107.25C75.5573 107.25 76.3854 106.87 76.9062 106.109V99C76.3958 98.2292 75.5781 97.8438 74.4531 97.8438C73.5156 97.8438 72.7812 98.2656 72.25 99.1094C71.7188 99.9427 71.4531 101.156 71.4531 102.75Z" fill="#5908A1"/>
<path d="M97.1719 104.953C97.1719 104.151 96.8854 103.526 96.3125 103.078C95.75 102.63 94.7552 102.167 93.3281 101.688C91.901 101.208 90.7344 100.745 89.8281 100.297C86.8802 98.849 85.4062 96.8594 85.4062 94.3281C85.4062 93.0677 85.7708 91.9583 86.5 91C87.2396 90.0312 88.2812 89.2812 89.625 88.75C90.9688 88.2083 92.4792 87.9375 94.1562 87.9375C95.7917 87.9375 97.2552 88.2292 98.5469 88.8125C99.849 89.3958 100.859 90.2292 101.578 91.3125C102.297 92.3854 102.656 93.6146 102.656 95H97.1875C97.1875 94.0729 96.901 93.3542 96.3281 92.8438C95.7656 92.3333 95 92.0781 94.0312 92.0781C93.0521 92.0781 92.276 92.2969 91.7031 92.7344C91.1406 93.1615 90.8594 93.7083 90.8594 94.375C90.8594 94.9583 91.1719 95.4896 91.7969 95.9688C92.4219 96.4375 93.5208 96.9271 95.0938 97.4375C96.6667 97.9375 97.9583 98.4792 98.9688 99.0625C101.427 100.479 102.656 102.432 102.656 104.922C102.656 106.911 101.906 108.474 100.406 109.609C98.9062 110.745 96.849 111.312 94.2344 111.312C92.3906 111.312 90.7188 110.984 89.2188 110.328C87.7292 109.661 86.6042 108.755 85.8438 107.609C85.0938 106.453 84.7188 105.125 84.7188 103.625H90.2188C90.2188 104.844 90.5312 105.745 91.1562 106.328C91.7917 106.901 92.8177 107.188 94.2344 107.188C95.1406 107.188 95.8542 106.995 96.375 106.609C96.9062 106.214 97.1719 105.661 97.1719 104.953ZM110.781 111H105.5V94.0938H110.781V111ZM105.188 89.7344C105.188 88.9844 105.458 88.3698 106 87.8906C106.542 87.4115 107.245 87.1719 108.109 87.1719C108.974 87.1719 109.677 87.4115 110.219 87.8906C110.76 88.3698 111.031 88.9844 111.031 89.7344C111.031 90.4844 110.76 91.099 110.219 91.5781C109.677 92.0573 108.974 92.2969 108.109 92.2969C107.245 92.2969 106.542 92.0573 106 91.5781C105.458 91.099 105.188 90.4844 105.188 89.7344ZM122.219 111.312C119.625 111.312 117.526 110.542 115.922 109C114.318 107.448 113.516 105.432 113.516 102.953V102.516C113.516 100.786 113.833 99.2604 114.469 97.9375C115.115 96.6146 116.052 95.5938 117.281 94.875C118.51 94.1458 119.969 93.7812 121.656 93.7812C124.031 93.7812 125.906 94.5208 127.281 96C128.656 97.4688 129.344 99.5208 129.344 102.156V104.203H118.875C119.062 105.151 119.474 105.896 120.109 106.438C120.745 106.979 121.568 107.25 122.578 107.25C124.245 107.25 125.547 106.667 126.484 105.5L128.891 108.344C128.234 109.25 127.302 109.974 126.094 110.516C124.896 111.047 123.604 111.312 122.219 111.312ZM121.625 97.8438C120.083 97.8438 119.167 98.8646 118.875 100.906H124.188V100.5C124.208 99.6562 123.995 99.0052 123.547 98.5469C123.099 98.0781 122.458 97.8438 121.625 97.8438ZM141.703 98.8594L139.969 98.7344C138.312 98.7344 137.25 99.2552 136.781 100.297V111H131.516V94.0938H136.453L136.625 96.2656C137.51 94.6094 138.745 93.7812 140.328 93.7812C140.891 93.7812 141.38 93.8438 141.797 93.9688L141.703 98.8594ZM153.828 98.8594L152.094 98.7344C150.438 98.7344 149.375 99.2552 148.906 100.297V111H143.641V94.0938H148.578L148.75 96.2656C149.635 94.6094 150.87 93.7812 152.453 93.7812C153.016 93.7812 153.505 93.8438 153.922 93.9688L153.828 98.8594ZM164.781 111C164.594 110.656 164.427 110.151 164.281 109.484C163.312 110.703 161.958 111.312 160.219 111.312C158.625 111.312 157.271 110.833 156.156 109.875C155.042 108.906 154.484 107.693 154.484 106.234C154.484 104.401 155.161 103.016 156.516 102.078C157.87 101.141 159.839 100.672 162.422 100.672H164.047V99.7812C164.047 98.2292 163.375 97.4531 162.031 97.4531C160.781 97.4531 160.156 98.0677 160.156 99.2969H154.891C154.891 97.6615 155.583 96.3333 156.969 95.3125C158.365 94.2917 160.141 93.7812 162.297 93.7812C164.453 93.7812 166.156 94.3073 167.406 95.3594C168.656 96.4115 169.297 97.8542 169.328 99.6875V107.172C169.349 108.724 169.589 109.911 170.047 110.734V111H164.781ZM161.484 107.562C162.141 107.562 162.682 107.422 163.109 107.141C163.547 106.859 163.859 106.542 164.047 106.188V103.484H162.516C160.682 103.484 159.766 104.307 159.766 105.953C159.766 106.432 159.927 106.823 160.25 107.125C160.573 107.417 160.984 107.562 161.484 107.562Z" fill="#7F56D8"/>
</g>
<defs>
<filter id="filter0_bd" x="15" y="74" width="170" height="57" filterUnits="userSpaceOnUse" color-interpolation-filters="sRGB">
<feFlood flood-opacity="0" result="BackgroundImageFix"/>
<feGaussianBlur in="BackgroundImage" stdDeviation="1.5"/>
<feComposite in2="SourceAlpha" operator="in" result="effect1_backgroundBlur"/>
<feColorMatrix in="SourceAlpha" type="matrix" values="0 0 0 0 0 0 0 0 0 0 0 0 0 0 0 0 0 0 127 0" result="hardAlpha"/>
<feOffset dy="4"/>
<feGaussianBlur stdDeviation="2"/>
<feComposite in2="hardAlpha" operator="out"/>
<feColorMatrix type="matrix" values="0 0 0 0 0.675 0 0 0 0 0.675 0 0 0 0 0.675 0 0 0 0.25 0"/>
<feBlend mode="normal" in2="effect1_backgroundBlur" result="effect2_dropShadow"/>
<feBlend mode="normal" in="SourceGraphic" in2="effect2_dropShadow" result="shape"/>
</filter>
<clipPath id="clip0">
<rect width="200" height="200" fill="white"/>
</clipPath>
</defs>
</svg>
